<?xml version="1.0" encoding="UTF-8"?>
<!DOCTYPE svg PUBLIC "-//W3C//DTD SVG 1.1//EN" "http://www.w3.org/Graphics/SVG/1.1/DTD/svg11.dtd">
<svg version="1.1" xmlns="http://www.w3.org/2000/svg" xmlns:xlink="http://www.w3.org/1999/xlink" x="0" y="0" width="717" height="716" viewBox="0, 0, 717, 716">
  <defs>
    <linearGradient id="Gradient_1" gradientUnits="userSpaceOnUse" x1="358.001" y1="356.423" x2="358.001" y2="0">
      <stop offset="0" stop-color="#D8232A"/>
      <stop offset="0.049" stop-color="#D8232A"/>
      <stop offset="0.399" stop-color="#D8232A"/>
      <stop offset="0.613" stop-color="#D8232A"/>
      <stop offset="1" stop-color="#FFFFFE"/>
    </linearGradient>
    <linearGradient id="Gradient_2" gradientUnits="userSpaceOnUse" x1="357.212" y1="356.635" x2="179.001" y2="47.964">
      <stop offset="0" stop-color="#D8232A"/>
      <stop offset="0.049" stop-color="#D8232A"/>
      <stop offset="0.399" stop-color="#D8232A"/>
      <stop offset="0.613" stop-color="#D8232A"/>
      <stop offset="1" stop-color="#FFFFFE"/>
    </linearGradient>
    <linearGradient id="Gradient_3" gradientUnits="userSpaceOnUse" x1="356.635" y1="357.211" x2="47.963" y2="178.999">
      <stop offset="0" stop-color="#D8232A"/>
      <stop offset="0.049" stop-color="#D8232A"/>
      <stop offset="0.399" stop-color="#D8232A"/>
      <stop offset="0.613" stop-color="#D8232A"/>
      <stop offset="1" stop-color="#FFFFFE"/>
    </linearGradient>
    <linearGradient id="Gradient_4" gradientUnits="userSpaceOnUse" x1="356.424" y1="357.999" x2="-0.001" y2="357.999">
      <stop offset="0" stop-color="#D8232A"/>
      <stop offset="0.049" stop-color="#D8232A"/>
      <stop offset="0.399" stop-color="#D8232A"/>
      <stop offset="0.613" stop-color="#D8232A"/>
      <stop offset="1" stop-color="#FFFFFE"/>
    </linearGradient>
    <linearGradient id="Gradient_5" gradientUnits="userSpaceOnUse" x1="356.635" y1="358.787" x2="47.963" y2="536.999">
      <stop offset="0" stop-color="#D8232A"/>
      <stop offset="0.049" stop-color="#D8232A"/>
      <stop offset="0.399" stop-color="#D8232A"/>
      <stop offset="0.613" stop-color="#D8232A"/>
      <stop offset="1" stop-color="#FFFFFE"/>
    </linearGradient>
    <linearGradient id="Gradient_6" gradientUnits="userSpaceOnUse" x1="357.211" y1="359.367" x2="179" y2="668.038">
      <stop offset="0" stop-color="#D8232A"/>
      <stop offset="0.049" stop-color="#D8232A"/>
      <stop offset="0.399" stop-color="#D8232A"/>
      <stop offset="0.613" stop-color="#D8232A"/>
      <stop offset="1" stop-color="#FFFFFE"/>
    </linearGradient>
    <linearGradient id="Gradient_7" gradientUnits="userSpaceOnUse" x1="358" y1="359.578" x2="358" y2="715.999">
      <stop offset="0" stop-color="#D8232A"/>
      <stop offset="0.049" stop-color="#D8232A"/>
      <stop offset="0.399" stop-color="#D8232A"/>
      <stop offset="0.613" stop-color="#D8232A"/>
      <stop offset="1" stop-color="#FFFFFE"/>
    </linearGradient>
    <linearGradient id="Gradient_8" gradientUnits="userSpaceOnUse" x1="358.791" y1="359.368" x2="537.002" y2="668.038">
      <stop offset="0" stop-color="#D8232A"/>
      <stop offset="0.049" stop-color="#D8232A"/>
      <stop offset="0.399" stop-color="#D8232A"/>
      <stop offset="0.613" stop-color="#D8232A"/>
      <stop offset="1" stop-color="#FFFFFE"/>
    </linearGradient>
    <linearGradient id="Gradient_9" gradientUnits="userSpaceOnUse" x1="359.368" y1="358.789" x2="668.038" y2="537">
      <stop offset="0" stop-color="#D8232A"/>
      <stop offset="0.049" stop-color="#D8232A"/>
      <stop offset="0.399" stop-color="#D8232A"/>
      <stop offset="0.613" stop-color="#D8232A"/>
      <stop offset="1" stop-color="#FFFFFE"/>
    </linearGradient>
    <linearGradient id="Gradient_10" gradientUnits="userSpaceOnUse" x1="359.58" y1="358.001" x2="716.002" y2="358.001">
      <stop offset="0" stop-color="#D8232A"/>
      <stop offset="0.049" stop-color="#D8232A"/>
      <stop offset="0.399" stop-color="#D8232A"/>
      <stop offset="0.613" stop-color="#D8232A"/>
      <stop offset="1" stop-color="#FFFFFE"/>
    </linearGradient>
    <linearGradient id="Gradient_11" gradientUnits="userSpaceOnUse" x1="359.369" y1="357.211" x2="668.039" y2="179">
      <stop offset="0" stop-color="#D8232A"/>
      <stop offset="0.049" stop-color="#D8232A"/>
      <stop offset="0.399" stop-color="#D8232A"/>
      <stop offset="0.613" stop-color="#D8232A"/>
      <stop offset="1" stop-color="#FFFFFE"/>
    </linearGradient>
    <linearGradient id="Gradient_12" gradientUnits="userSpaceOnUse" x1="358.792" y1="356.632" x2="537.003" y2="47.962">
      <stop offset="0" stop-color="#D8232A"/>
      <stop offset="0.049" stop-color="#D8232A"/>
      <stop offset="0.399" stop-color="#D8232A"/>
      <stop offset="0.613" stop-color="#D8232A"/>
      <stop offset="1" stop-color="#FFFFFE"/>
    </linearGradient>
  </defs>
  <g id="Layer_1">
    <path d="M358.002,-0 L310.061,-0 L358.002,356.423 L405.941,-0 L358.002,-0 z" fill="url(#Gradient_1)"/>
    <path d="M179.001,47.963 L137.483,71.933 L357.213,356.634 L220.518,23.993 L179.001,47.963 z" fill="url(#Gradient_2)"/>
    <path d="M47.964,179 L23.993,220.517 L356.636,357.211 L71.934,137.482 L47.964,179 z" fill="url(#Gradient_3)"/>
    <path d="M0.06,310.068 L356.425,358 L0.06,405.932 L0.06,310.068 z" fill="url(#Gradient_4)"/>
    <path d="M47.964,537 L71.934,578.517 L356.636,358.789 L23.993,495.482 L47.964,537 z" fill="url(#Gradient_5)"/>
    <path d="M179.001,668.037 L220.518,692.007 L357.213,359.366 L137.482,644.066 L179.001,668.037 z" fill="url(#Gradient_6)"/>
    <path d="M358.002,716 L405.941,716 L358.002,359.578 L310.06,716 L358.002,716 z" fill="url(#Gradient_7)"/>
    <path d="M537.002,668.037 L578.52,644.066 L358.791,359.366 L495.482,692.007 L537.002,668.037 z" fill="url(#Gradient_8)"/>
    <path d="M668.039,537 L692.008,495.482 L359.368,358.789 L644.067,578.519 L668.039,537 z" fill="url(#Gradient_9)"/>
    <path d="M716.002,358 L716.001,310.06 L359.58,358 L716.002,405.942 L716.002,358 z" fill="url(#Gradient_10)"/>
    <path d="M668.039,179 L644.068,137.483 L359.368,357.211 L692.01,220.519 L668.039,179 z" fill="url(#Gradient_11)"/>
    <path d="M537.002,47.963 L495.484,23.993 L358.791,356.633 L578.521,71.934 L537.002,47.963 z" fill="url(#Gradient_12)"/>
    <path d="M181.269,418.725 C185.385,430.543 189.821,431.307 189.821,431.307 C190.117,431.791 190.429,432.244 190.742,432.697 C185.626,429.638 179.074,425.741 171.644,421.366 C171.644,421.366 174.604,421.402 181.269,418.725 z M596.625,395.347 C592.959,384.526 587.557,354.244 587.557,354.244 C591.92,338.018 587.07,323.022 587.07,323.022 C572.234,286.353 558.135,276.098 558.135,276.098 C538.744,261.905 519.172,266.929 519.172,266.929 C505.133,265.088 499.018,255.15 499.018,255.15 C491.25,242.016 481.15,234.12 481.15,234.12 C457.578,203.952 402.098,221.41 402.098,221.41 C380.102,223.664 359.371,197.064 359.371,197.064 C340.73,178.458 314.431,189.968 314.431,189.968 C306.463,194.067 280.913,201.167 280.913,201.167 C272.495,200.462 264.028,195.753 264.028,195.753 C232.654,183.698 208.537,211.207 208.537,211.207 C178.345,232.779 177.599,272.434 177.599,272.434 L176.11,309.748 C175.825,314.018 175.583,318.121 175.373,322.097 C166.353,330.547 153.333,339.99 137.126,344.239 C137.126,344.239 110.208,346.906 108.435,366.955 C108.435,366.955 102.57,414.274 92.667,424.405 C92.667,424.405 74.129,449.045 116.402,468.586 C116.402,468.586 136.22,485.59 148.056,504.676 C148.056,504.676 198.069,555.557 243.115,502.168 C243.115,502.168 254.859,488.909 245.236,456.706 C245.236,456.706 246.232,450.269 229.189,444.816 C230.229,444.611 230.829,444.454 230.829,444.454 C244.865,446.303 247.46,427.844 247.46,427.844 C244.229,460.721 252.041,477.862 252.041,477.862 C261.141,503.381 295.158,500.995 295.158,500.995 C322.804,501.881 334.681,489.727 334.681,489.727 C332.615,518.991 372.289,521.741 372.289,521.741 C405.605,527.764 412.236,511.268 412.236,511.268 C437.67,524.315 456.41,522.778 456.41,522.778 C500.873,523.067 546.109,450.456 554.459,445.159 C562.809,439.854 581.055,426.247 581.055,426.247 C601.135,418.093 596.625,395.347 596.625,395.347" fill="#1A1919"/>
    <path d="M181.269,418.725 C185.385,430.543 189.821,431.307 189.821,431.307 C190.117,431.791 190.429,432.244 190.742,432.697 C185.626,429.638 179.074,425.741 171.644,421.366 C171.644,421.366 174.604,421.402 181.269,418.725 z M596.625,395.347 C592.959,384.526 587.557,354.244 587.557,354.244 C591.92,338.018 587.07,323.022 587.07,323.022 C572.234,286.353 558.135,276.098 558.135,276.098 C538.744,261.905 519.172,266.929 519.172,266.929 C505.133,265.088 499.018,255.15 499.018,255.15 C491.25,242.016 481.15,234.12 481.15,234.12 C457.578,203.952 402.098,221.41 402.098,221.41 C380.102,223.664 359.371,197.064 359.371,197.064 C340.73,178.458 314.431,189.968 314.431,189.968 C306.463,194.067 280.913,201.167 280.913,201.167 C272.495,200.462 264.028,195.753 264.028,195.753 C232.654,183.698 208.537,211.207 208.537,211.207 C178.345,232.779 177.599,272.434 177.599,272.434 L176.11,309.748 C175.825,314.018 175.583,318.121 175.373,322.097 C166.353,330.547 153.333,339.99 137.126,344.239 C137.126,344.239 110.208,346.906 108.435,366.955 C108.435,366.955 102.57,414.274 92.667,424.405 C92.667,424.405 74.129,449.045 116.402,468.586 C116.402,468.586 136.22,485.59 148.056,504.676 C148.056,504.676 198.069,555.557 243.115,502.168 C243.115,502.168 254.859,488.909 245.236,456.706 C245.236,456.706 246.232,450.269 229.189,444.816 C230.229,444.611 230.829,444.454 230.829,444.454 C244.865,446.303 247.46,427.844 247.46,427.844 C244.229,460.721 252.041,477.862 252.041,477.862 C261.141,503.381 295.158,500.995 295.158,500.995 C322.804,501.881 334.681,489.727 334.681,489.727 C332.615,518.991 372.289,521.741 372.289,521.741 C405.605,527.764 412.236,511.268 412.236,511.268 C437.67,524.315 456.41,522.778 456.41,522.778 C500.873,523.067 546.109,450.456 554.459,445.159 C562.809,439.854 581.055,426.247 581.055,426.247 C601.135,418.093 596.625,395.347 596.625,395.347 z" fill-opacity="0" stroke="#1A1919" stroke-width="17" stroke-linecap="round" stroke-linejoin="round"/>
    <path d="M189.601,305.906 C189.601,305.906 169.848,335.661 137.126,344.239 C137.126,344.239 110.208,346.906 108.435,366.955 C108.435,366.955 102.57,414.274 92.667,424.405 C92.667,424.405 74.129,449.045 116.402,468.586 C116.402,468.586 136.22,485.59 148.056,504.676 C148.056,504.676 198.069,555.557 243.115,502.168 C243.115,502.168 254.859,488.909 245.236,456.706 C245.236,456.706 247.104,444.674 202.183,439.575 C202.183,439.575 189.404,431.823 171.644,421.366 C171.644,421.366 176.747,421.442 188.692,415.305 C188.692,415.305 219.209,373.251 189.601,305.906" fill="#F9D3A9"/>
    <path d="M190.222,305.633 C194.826,314.004 198.624,322.886 201.479,332.139 C202.93,336.761 204.071,341.491 204.981,346.284 C205.893,351.077 206.546,355.943 206.839,360.853 C207.151,365.76 207.167,370.707 206.869,375.656 C206.566,380.605 205.871,385.544 204.873,390.44 C203.865,395.335 202.521,400.185 200.784,404.938 C199.9,407.31 198.921,409.657 197.821,411.979 C197.271,413.14 196.689,414.294 196.065,415.448 C195.752,416.026 195.429,416.603 195.086,417.186 L194.554,418.071 L194.265,418.529 L193.896,419.081 L193.144,420.205 L191.63,421.024 C188.809,422.55 185.901,423.991 182.802,425.265 C181.249,425.901 179.65,426.496 177.941,427.018 C177.085,427.279 176.202,427.521 175.251,427.727 C174.773,427.831 174.282,427.927 173.744,428.011 C173.476,428.053 173.194,428.092 172.885,428.126 L172.383,428.173 L172.082,428.193 L171.895,428.201 L171.543,428.205 L175.114,415.472 C180.279,418.403 185.457,421.314 190.591,424.3 C195.718,427.305 200.857,430.257 205.957,433.354 L203.004,432.345 C211.284,433.266 219.586,434.57 227.977,436.927 C232.174,438.143 236.382,439.621 240.665,441.898 C242.803,443.066 244.973,444.418 247.128,446.433 C248.2,447.454 249.276,448.64 250.244,450.232 C250.724,451.031 251.175,451.928 251.534,453.007 C251.712,453.548 251.867,454.132 251.978,454.799 C252.033,455.134 252.076,455.49 252.1,455.894 C252.112,456.097 252.119,456.312 252.117,456.56 L252.103,456.972 L252.084,457.234 L252.068,457.404 L252.022,457.757 L251.815,454.74 C253.698,461.364 255.017,468.25 255.383,475.358 C255.724,482.451 255.153,489.818 252.596,497.026 C251.949,498.827 251.169,500.607 250.172,502.371 C249.669,503.259 249.129,504.127 248.442,505.06 C247.544,506.251 247.078,506.652 246.485,507.343 C244.159,509.879 241.707,512.323 239.091,514.617 C233.843,519.167 227.929,523.131 221.43,525.958 C214.93,528.762 207.873,530.371 200.848,530.536 C193.817,530.722 186.887,529.523 180.422,527.364 C173.95,525.195 167.875,522.192 162.257,518.574 C159.429,516.794 156.727,514.841 154.099,512.8 C151.468,510.727 148.993,508.611 146.538,506.168 L146.368,506 L146.247,505.798 C144.225,502.433 141.953,499.197 139.547,496.058 C137.147,492.912 134.559,489.902 131.904,486.953 C129.206,484.041 126.447,481.178 123.549,478.46 C120.682,475.732 117.674,473.065 114.659,470.618 L115.279,471.016 C110.71,469.114 106.194,466.942 101.901,464.194 C97.618,461.456 93.459,458.197 90.062,453.892 C88.372,451.746 86.892,449.333 85.792,446.678 C84.69,444.029 83.989,441.139 83.791,438.198 C83.58,435.255 83.901,432.286 84.624,429.452 C84.988,428.032 85.454,426.644 86.035,425.292 C86.324,424.615 86.639,423.946 86.988,423.277 C87.164,422.943 87.347,422.609 87.545,422.269 L87.859,421.75 L88.036,421.474 L88.286,421.109 L88.219,421.207 L88.747,420.573 C89.408,419.779 90.278,418.283 90.989,416.689 C91.723,415.077 92.362,413.294 92.985,411.477 C93.6,409.652 94.158,407.768 94.676,405.854 C95.209,403.945 95.712,402.008 96.18,400.053 C97.101,396.139 98.006,392.181 98.785,388.184 C99.608,384.195 100.356,380.174 101.041,376.141 L102.041,370.089 L102.507,367.072 L102.615,366.334 L102.628,366.244 C102.649,366.048 102.603,366.484 102.609,366.428 L102.613,366.397 L102.62,366.336 L102.649,366.092 L102.708,365.604 C102.796,364.955 102.896,364.303 103.036,363.654 C103.563,361.06 104.496,358.483 105.837,356.165 C107.165,353.838 108.846,351.767 110.704,350.006 C114.438,346.464 118.78,344.158 123.128,342.524 C125.311,341.708 127.514,341.051 129.74,340.546 C130.853,340.295 131.971,340.078 133.1,339.895 C133.664,339.803 134.231,339.72 134.807,339.646 C135.406,339.57 135.909,339.513 136.651,339.451 L135.906,339.584 C140.937,338.458 145.902,336.812 150.7,334.655 C155.503,332.514 160.158,329.912 164.618,326.948 C169.112,324.023 173.373,320.683 177.46,317.103 C179.511,315.318 181.503,313.454 183.429,311.516 C185.379,309.604 187.26,307.589 189.037,305.528 L189.726,304.73 L190.222,305.633 z M189.415,307.541 C186.824,311.978 183.783,316.105 180.48,320.056 C176.849,324.368 172.83,328.378 168.514,332.108 C164.166,335.796 159.468,339.143 154.423,341.996 C149.378,344.837 143.997,347.217 138.346,348.893 L138.396,348.878 L137.601,349.027 L136.358,349.259 L134.997,349.561 C134.086,349.778 133.178,350.026 132.28,350.298 C130.485,350.843 128.726,351.471 127.058,352.217 C123.721,353.703 120.72,355.631 118.51,357.932 C116.294,360.247 114.957,362.886 114.457,365.85 C114.387,366.219 114.345,366.598 114.307,366.979 L114.227,367.798 L114.135,368.606 L113.749,371.765 C113.483,373.862 113.199,375.954 112.877,378.04 C111.611,386.388 110.125,394.715 107.957,403.019 C106.875,407.174 105.63,411.318 104.021,415.48 C103.225,417.567 102.305,419.645 101.192,421.757 C100.043,423.867 98.81,426.021 96.587,428.237 L97.048,427.701 C97.107,427.617 97.046,427.693 97.036,427.705 L96.958,427.804 L96.782,428.044 L96.415,428.593 C96.172,428.977 95.937,429.383 95.717,429.8 C95.279,430.636 94.888,431.51 94.563,432.405 C93.91,434.196 93.55,436.066 93.465,437.951 C93.287,441.722 94.459,445.595 96.701,449.156 C98.935,452.72 102.117,455.953 105.714,458.758 C109.331,461.556 113.34,463.999 117.525,466.157 L117.958,466.38 L118.146,466.555 C121.174,469.391 123.982,472.261 126.807,475.191 C129.594,478.139 132.367,481.098 135.017,484.171 C137.708,487.208 140.281,490.352 142.784,493.561 C145.277,496.778 147.652,500.1 149.864,503.554 L149.574,503.184 C151.757,505.286 154.304,507.307 156.847,509.151 C159.407,511.014 162.096,512.695 164.841,514.246 C170.368,517.276 176.198,519.72 182.209,521.152 C188.212,522.587 194.355,523.064 200.291,522.353 C206.229,521.663 211.923,519.791 217.12,516.962 C222.338,514.171 227.096,510.487 231.387,506.244 C233.554,504.146 235.601,501.896 237.552,499.548 C237.994,498.992 238.66,498.22 238.705,498.087 C238.959,497.698 239.257,497.172 239.524,496.632 C240.065,495.538 240.547,494.315 240.95,493.045 C242.561,487.919 242.886,482.068 242.364,476.24 C241.842,470.385 240.478,464.484 238.657,458.671 L238.231,457.312 L238.451,455.654 L238.41,455.96 L238.398,456.083 L238.386,456.25 L238.378,456.472 L238.383,456.759 C238.391,456.912 238.404,457.015 238.416,457.101 C238.441,457.27 238.467,457.363 238.483,457.425 C238.518,457.545 238.515,457.532 238.466,457.469 C238.372,457.334 238.087,456.999 237.678,456.644 C236.851,455.915 235.562,455.098 234.125,454.383 C231.217,452.929 227.714,451.793 224.126,450.835 C220.522,449.865 216.764,449.097 212.951,448.458 C209.138,447.804 205.266,447.251 201.362,446.804 L199.759,446.621 L198.409,445.795 L183.288,436.553 L147.828,414.749 L171.744,414.527 L171.534,414.529 L171.49,414.532 C171.474,414.533 171.47,414.535 171.473,414.535 L171.537,414.534 L171.807,414.511 C172.02,414.487 172.274,414.449 172.54,414.402 C173.074,414.305 173.663,414.177 174.266,414.025 C175.475,413.72 176.746,413.321 178.022,412.867 C180.582,411.956 183.179,410.827 185.753,409.586 L183.488,411.528 C183.47,411.559 183.571,411.421 183.625,411.349 L183.827,411.067 L184.249,410.452 C184.532,410.027 184.814,409.586 185.093,409.136 C185.65,408.235 186.191,407.3 186.712,406.347 C187.755,404.439 188.72,402.458 189.61,400.433 C191.417,396.391 192.933,392.172 194.15,387.851 C195.379,383.53 196.273,379.1 196.956,374.619 C197.642,370.137 198.046,365.591 198.173,361.019 C198.283,356.447 198.193,351.845 197.84,347.241 C197.495,342.635 196.857,338.039 196.084,333.443 C194.56,324.722 192.233,316.086 189.415,307.541" fill="#1A1919"/>
    <path d="M177.599,272.434 C177.599,272.434 178.345,232.779 208.537,211.207 C208.537,211.207 232.654,183.698 264.028,195.753 C264.028,195.753 272.495,200.462 280.913,201.167 C280.913,201.167 306.463,194.067 314.431,189.968 C314.431,189.968 340.73,178.458 359.371,197.064 C359.371,197.064 380.102,223.664 402.098,221.41 C402.098,221.41 457.578,203.952 481.15,234.12 C481.15,234.12 491.25,242.016 499.018,255.15 C499.018,255.15 505.133,265.088 519.172,266.929 C519.172,266.929 538.744,261.905 558.135,276.098 C558.135,276.098 572.234,286.353 587.07,323.022 C587.07,323.022 591.92,338.018 587.557,354.244 C587.557,354.244 592.959,384.526 596.625,395.347 C596.625,395.347 601.135,418.093 581.055,426.247 C581.055,426.247 562.809,439.854 554.459,445.159 C546.109,450.456 500.873,523.067 456.41,522.778 C456.41,522.778 437.67,524.315 412.236,511.268 C412.236,511.268 405.605,527.764 372.289,521.741 C372.289,521.741 332.615,518.991 334.681,489.727 C334.681,489.727 322.804,501.881 295.158,500.995 C295.158,500.995 261.141,503.381 252.041,477.862 C252.041,477.862 244.229,460.721 247.46,427.844 C247.46,427.844 244.865,446.303 230.829,444.454 C230.829,444.454 202.479,451.993 189.821,431.307 C189.821,431.307 168.241,427.594 176.11,309.748 L177.599,272.434" fill="#F9D3A9"/>
    <path d="M178.277,272.449 L178.277,272.461 L176.882,313.114 C176.563,319.875 176.293,326.638 176.189,333.403 C176.055,340.166 176.058,346.929 176.218,353.683 C176.366,360.436 176.64,367.18 177.1,373.897 C177.601,380.612 178.285,387.302 179.274,393.909 C180.27,400.505 181.559,407.055 183.495,413.245 C184.467,416.326 185.61,419.33 187.029,421.986 C187.736,423.306 188.522,424.541 189.352,425.527 C189.763,426.016 190.189,426.443 190.567,426.739 C190.754,426.886 190.931,427 191.052,427.059 C191.11,427.089 191.156,427.105 191.159,427.099 C191.159,427.096 191.149,427.086 191.11,427.068 L191.014,427.029 C190.941,427.01 190.974,426.999 190.576,426.921 L193.617,428.984 C195.439,431.734 197.723,434.04 200.386,435.787 C203.046,437.541 206.081,438.744 209.307,439.455 C212.534,440.166 215.941,440.394 219.37,440.273 C221.085,440.208 222.807,440.048 224.512,439.802 C225.363,439.678 226.211,439.533 227.043,439.365 L228.273,439.097 L228.862,438.953 C229.031,438.909 229.284,438.841 229.331,438.822 C229.811,438.63 230.309,438.563 230.791,438.604 L231.59,438.676 C232.991,438.802 234.105,438.624 235.034,438.192 C235.964,437.764 236.845,437.041 237.689,435.928 C238.529,434.83 239.275,433.384 239.878,431.795 C240.179,431 240.442,430.165 240.663,429.315 C240.773,428.891 240.873,428.463 240.959,428.042 L241.077,427.421 L241.124,427.131 C241.135,427.06 241.156,426.908 241.146,426.957 L253.806,428.468 C253.479,432.521 253.325,436.574 253.289,440.61 C253.264,444.645 253.411,448.667 253.753,452.646 C254.104,456.623 254.609,460.567 255.381,464.405 C255.764,466.324 256.209,468.215 256.724,470.05 C256.982,470.965 257.257,471.869 257.55,472.737 C257.697,473.17 257.848,473.596 258,474.001 L258.228,474.585 L258.39,474.968 L258.473,475.166 C258.519,475.273 258.572,475.41 258.613,475.518 C259.811,478.767 261.6,481.621 263.965,484.006 C266.319,486.399 269.246,488.352 272.561,489.837 C275.871,491.327 279.541,492.361 283.34,492.999 C285.239,493.317 287.174,493.539 289.111,493.662 C290.08,493.725 291.049,493.759 292.007,493.777 L293.426,493.779 L294.109,493.763 L294.649,493.74 L294.9,493.729 C295.06,493.722 295.234,493.722 295.392,493.726 C301.832,493.923 308.218,493.383 314.208,491.855 C317.197,491.089 320.087,490.083 322.781,488.829 C324.124,488.199 325.417,487.503 326.618,486.751 C327.218,486.376 327.794,485.985 328.328,485.592 C328.593,485.396 328.847,485.198 329.077,485.009 L329.395,484.742 L329.519,484.631 L329.557,484.596 C329.55,484.605 329.604,484.549 329.495,484.66 L341.913,490.238 C341.646,493.81 342.181,497.05 343.596,499.865 C344.986,502.69 347.313,505.212 350.354,507.309 C353.383,509.409 357.032,511.068 360.903,512.319 C362.841,512.946 364.841,513.473 366.864,513.903 C367.876,514.118 368.895,514.308 369.908,514.47 L371.418,514.691 L372.153,514.781 L372.767,514.845 L373.155,514.886 C373.274,514.899 373.402,514.917 373.519,514.939 C380.198,516.193 386.952,516.717 393.037,515.752 C396.064,515.276 398.897,514.404 401.262,513.104 C402.443,512.458 403.507,511.704 404.398,510.875 C404.845,510.462 405.246,510.029 405.584,509.602 C405.752,509.39 405.907,509.178 406.031,508.988 L406.189,508.732 L406.236,508.652 C406.24,508.644 406.243,508.64 406.24,508.649 L406.166,508.828 L415.223,505.447 C421.665,508.828 428.404,511.606 435.333,513.589 C438.795,514.581 442.305,515.371 445.818,515.919 C447.574,516.193 449.332,516.406 451.07,516.542 C451.938,516.61 452.802,516.659 453.648,516.684 L454.893,516.703 L455.91,516.684 L456.45,516.664 C462.163,516.78 468.057,515.45 473.75,513.175 C479.456,510.901 484.963,507.721 490.241,504.099 C500.844,496.849 510.454,487.771 519.608,478.248 C524.181,473.464 528.613,468.514 532.976,463.466 C537.356,458.418 541.588,453.27 546.095,448.106 C547.237,446.812 548.386,445.525 549.715,444.204 C550.423,443.531 551.036,442.888 552.238,442.068 L554.397,440.727 C557.175,438.968 559.951,437.109 562.716,435.238 C568.242,431.485 573.748,427.638 579.204,423.765 L579.317,423.684 C579.495,423.558 579.696,423.454 579.891,423.378 C582.521,422.375 584.948,420.974 586.995,419.155 C589.048,417.343 590.709,415.107 591.915,412.589 C593.128,410.075 593.884,407.288 594.256,404.42 C594.439,402.986 594.533,401.529 594.521,400.071 C594.515,399.343 594.484,398.614 594.43,397.892 C594.379,397.192 594.291,396.405 594.194,395.829 L594.278,396.142 C593.154,392.629 592.354,389.197 591.56,385.738 C590.779,382.285 590.064,378.831 589.377,375.375 C588.032,368.455 586.695,361.559 585.47,354.617 L585.468,354.605 C585.413,354.295 585.434,353.979 585.51,353.694 C586.836,348.83 587.39,343.738 587.302,338.649 C587.258,336.103 587.059,333.554 586.699,331.03 C586.33,328.533 585.808,325.947 585.113,323.655 L585.164,323.793 C582.154,316.384 578.767,309.133 574.879,302.188 C572.944,298.711 570.861,295.326 568.626,292.064 C566.389,288.809 564.014,285.65 561.398,282.774 C560.097,281.343 558.727,279.957 557.328,278.771 L556.816,278.354 L556.608,278.198 L556.318,277.999 C555.926,277.723 555.527,277.455 555.125,277.193 C554.323,276.667 553.509,276.162 552.678,275.686 C549.361,273.771 545.824,272.282 542.179,271.218 C538.53,270.162 534.765,269.539 530.99,269.377 C529.104,269.294 527.215,269.325 525.349,269.474 C524.416,269.549 523.488,269.651 522.577,269.792 C522.122,269.862 521.671,269.942 521.23,270.03 C520.814,270.112 520.301,270.228 520.038,270.305 C519.669,270.413 519.296,270.444 518.936,270.408 L518.719,270.385 C513.98,269.887 509.249,268.396 505.047,265.917 C502.945,264.679 500.975,263.213 499.18,261.523 C498.281,260.675 497.428,259.778 496.613,258.784 C496.204,258.272 495.813,257.794 495.359,257.057 L494.527,255.774 C492.271,252.374 489.726,249.151 486.962,246.132 C485.58,244.623 484.144,243.165 482.66,241.77 C481.918,241.074 481.165,240.393 480.403,239.735 L479.258,238.771 C478.894,238.473 478.457,238.124 478.179,237.921 C477.937,237.744 477.724,237.542 477.539,237.322 L477.349,237.09 C473.388,232.297 468.224,228.669 462.365,226.316 C456.51,223.939 450.055,222.783 443.492,222.344 C436.915,221.941 430.201,222.281 423.527,223.143 C420.191,223.583 416.86,224.147 413.556,224.819 C411.904,225.158 410.26,225.529 408.632,225.932 L406.208,226.561 C405.431,226.772 404.564,227.02 403.926,227.22 C403.548,227.339 403.167,227.419 402.788,227.463 L402.719,227.47 C397.465,228.039 392.273,227.193 387.614,225.647 C382.935,224.087 378.691,221.861 374.813,219.291 C370.929,216.721 367.376,213.833 364.055,210.75 C362.391,209.211 360.803,207.604 359.265,205.948 C358.495,205.119 357.739,204.278 356.995,203.416 L355.885,202.105 C355.503,201.643 355.178,201.245 354.736,200.677 L355.22,201.223 C351.095,196.987 345.945,194.035 340.12,192.729 C334.316,191.404 327.932,191.584 321.773,192.957 C320.238,193.289 318.699,193.699 317.262,194.176 L316.741,194.355 L316.501,194.441 C316.474,194.451 316.408,194.477 316.423,194.469 L316.39,194.481 C316.115,194.611 316.744,194.313 316.671,194.348 L316.649,194.359 L316.561,194.401 C316.083,194.631 315.632,194.828 315.179,195.023 C314.282,195.403 313.409,195.743 312.543,196.064 C309.09,197.336 305.713,198.382 302.32,199.399 C295.542,201.42 288.787,203.198 281.944,204.878 L281.712,204.935 C281.339,205.027 280.953,205.046 280.592,205.005 C277.213,204.613 274.081,203.729 271.093,202.633 C269.6,202.082 268.143,201.47 266.714,200.806 C265.266,200.128 263.929,199.457 262.445,198.6 L262.86,198.793 C258.477,196.924 253.806,195.766 249.035,195.47 C244.267,195.166 239.416,195.73 234.724,197.047 C230.037,198.384 225.517,200.447 221.285,203.019 C217.079,205.589 213.026,208.687 209.616,212.153 L209.523,212.248 C209.477,212.294 209.423,212.339 209.371,212.375 C204.604,215.637 200.272,219.563 196.531,224.014 C192.804,228.477 189.632,233.422 187.058,238.67 C184.5,243.927 182.481,249.457 181.003,255.13 C179.565,260.801 178.551,266.641 178.277,272.449 z M176.921,272.418 C177.181,266.422 178.187,260.557 179.625,254.779 C181.064,249.008 182.998,243.346 185.529,237.94 C188.042,232.53 191.118,227.352 194.84,222.642 C198.535,217.916 202.856,213.644 207.702,210.039 L207.457,210.261 C209.236,208.214 211.092,206.447 213.07,204.716 C215.043,203.002 217.115,201.399 219.28,199.918 C223.608,196.958 228.322,194.48 233.363,192.743 C238.387,190.977 243.757,189.969 249.188,189.96 C254.616,189.938 260.066,190.914 265.196,192.713 C265.239,192.729 265.281,192.746 265.322,192.766 L265.611,192.907 C266.744,193.463 268.105,194.048 269.39,194.543 C270.696,195.046 272.019,195.5 273.345,195.891 C275.995,196.671 278.682,197.211 281.234,197.329 L279.882,197.456 C286.447,195.357 293.045,193.154 299.506,190.841 C302.726,189.672 305.942,188.463 308.958,187.149 C309.708,186.821 310.44,186.485 311.128,186.145 C311.466,185.975 311.804,185.804 312.101,185.636 L312.159,185.605 L312.533,185.427 L312.756,185.329 L313.122,185.171 L313.821,184.885 C315.652,184.157 317.455,183.567 319.297,183.053 C322.977,182.046 326.76,181.397 330.629,181.151 C334.494,180.91 338.451,181.085 342.371,181.842 C346.287,182.587 350.162,183.896 353.762,185.776 C357.371,187.641 360.657,190.106 363.522,192.905 C363.602,192.981 363.676,193.061 363.746,193.143 L364.006,193.452 L364.883,194.486 L365.859,195.586 C366.521,196.318 367.204,197.042 367.897,197.756 C369.286,199.184 370.728,200.563 372.192,201.902 C375.132,204.571 378.233,207.022 381.468,209.108 C384.703,211.181 388.057,212.935 391.454,214.058 C394.85,215.191 398.254,215.659 401.477,215.35 L400.27,215.599 C401.317,215.282 402.151,215.059 403.078,214.815 L405.783,214.144 C407.584,213.718 409.386,213.333 411.193,212.981 C414.808,212.273 418.448,211.718 422.117,211.323 C429.449,210.52 436.904,210.293 444.4,211.005 C451.881,211.697 459.446,213.385 466.565,216.613 C473.659,219.816 480.253,224.764 484.952,231.15 L484.122,230.319 C484.688,230.788 485.073,231.136 485.524,231.543 L486.795,232.73 C487.626,233.526 488.433,234.334 489.222,235.157 C490.799,236.8 492.307,238.497 493.75,240.246 C496.635,243.744 499.268,247.451 501.584,251.365 L502.436,252.843 C502.525,253.039 502.787,253.422 503.036,253.764 C503.551,254.468 504.148,255.172 504.784,255.839 C506.061,257.176 507.51,258.382 509.073,259.417 C512.203,261.492 515.813,262.866 519.625,263.474 L518.306,263.553 C519.022,263.394 519.5,263.323 520.078,263.235 C520.632,263.155 521.178,263.088 521.723,263.033 C522.813,262.922 523.894,262.847 524.974,262.809 C527.133,262.733 529.284,262.795 531.42,262.983 C535.692,263.356 539.905,264.25 543.947,265.616 C547.99,266.984 551.848,268.849 555.439,271.093 C556.34,271.651 557.22,272.239 558.084,272.847 C558.517,273.15 558.944,273.461 559.366,273.778 L559.691,274.019 L560.078,274.33 L560.721,274.889 C562.349,276.37 563.761,277.913 565.12,279.508 C570.516,285.89 574.818,292.903 578.712,300.084 C582.582,307.283 585.928,314.717 588.977,322.251 L588.99,322.286 C589.004,322.319 589.017,322.355 589.027,322.39 C589.845,325.143 590.336,327.74 590.73,330.45 C591.119,333.136 591.36,335.844 591.425,338.563 C591.558,343.995 591.01,349.483 589.604,354.794 L589.644,353.872 C590.919,360.743 592.248,367.631 593.776,374.452 C594.532,377.865 595.315,381.269 596.156,384.646 C597.004,388.008 597.884,391.4 598.972,394.551 C599.006,394.65 599.035,394.765 599.056,394.865 C599.239,395.829 599.331,396.599 599.418,397.457 C599.5,398.293 599.553,399.129 599.578,399.965 C599.63,401.637 599.596,403.313 599.436,404.991 C599.118,408.339 598.346,411.707 596.949,414.889 C595.564,418.068 593.529,421.038 590.968,423.46 C588.415,425.9 585.381,427.761 582.22,429.115 L582.905,428.728 C577.572,432.87 572.229,436.957 566.803,440.993 C564.087,443.009 561.359,445.007 558.543,446.971 L556.48,448.383 C556.297,448.519 555.716,449.074 555.244,449.591 C554.236,450.685 553.195,451.951 552.171,453.223 C548.063,458.375 543.991,463.798 539.793,469.096 C535.599,474.412 531.292,479.677 526.799,484.817 C522.314,489.964 517.615,494.965 512.638,499.743 C507.661,504.521 502.414,509.091 496.75,513.264 C491.078,517.416 484.957,521.149 478.242,524.033 C471.545,526.891 464.13,528.866 456.37,528.892 L456.909,528.872 L455.899,528.931 L455.048,528.958 C454.492,528.969 453.949,528.97 453.411,528.964 C452.337,528.952 451.28,528.912 450.232,528.849 C448.137,528.724 446.073,528.512 444.027,528.233 C439.937,527.672 435.919,526.842 431.973,525.792 C424.081,523.691 416.483,520.715 409.25,517.089 L418.307,513.709 L418.093,514.202 L417.946,514.507 L417.672,515.036 C417.493,515.365 417.314,515.672 417.133,515.964 C416.77,516.55 416.395,517.086 416.005,517.602 C415.226,518.629 414.391,519.557 413.51,520.409 C411.75,522.114 409.814,523.518 407.805,524.673 C403.773,526.986 399.492,528.307 395.302,529.057 C391.1,529.802 386.955,529.972 382.916,529.829 C378.873,529.68 374.926,529.208 371.06,528.542 L371.811,528.636 L370.709,528.542 L369.731,528.437 L367.826,528.187 C366.568,528.004 365.324,527.791 364.084,527.546 C361.605,527.058 359.146,526.45 356.698,525.699 C351.814,524.189 346.945,522.138 342.356,519.073 C337.8,516.039 333.479,511.786 330.727,506.369 C329.356,503.681 328.404,500.771 327.884,497.855 C327.357,494.934 327.261,492.02 327.448,489.216 L339.866,494.795 L339.368,495.277 L339.004,495.607 L338.323,496.191 C337.878,496.561 337.441,496.903 337.005,497.23 C336.133,497.881 335.261,498.478 334.38,499.038 C332.619,500.156 330.825,501.127 329.002,501.997 C325.358,503.733 321.597,505.027 317.799,505.987 C310.196,507.908 302.478,508.505 294.925,508.263 L295.667,508.25 L294.57,508.299 L293.615,508.32 C292.987,508.328 292.371,508.325 291.757,508.314 C290.53,508.293 289.316,508.23 288.105,508.142 C285.683,507.962 283.273,507.664 280.868,507.236 C276.062,506.375 271.254,505.004 266.608,502.864 C261.979,500.729 257.492,497.77 253.77,493.865 C250.038,489.98 247.188,485.193 245.468,480.206 L245.691,480.755 L245.435,480.149 L245.249,479.675 L244.917,478.778 C244.708,478.192 244.518,477.62 244.336,477.05 C243.974,475.913 243.655,474.79 243.359,473.668 C242.773,471.428 242.292,469.2 241.887,466.971 C241.083,462.515 240.56,458.067 240.295,453.625 C239.765,444.744 240.096,435.916 241.115,427.22 L253.774,428.732 L253.664,429.366 L253.56,429.881 L253.335,430.864 C253.179,431.507 253.006,432.138 252.818,432.765 C252.441,434.018 252.003,435.254 251.485,436.485 C250.449,438.941 249.099,441.389 247.17,443.679 C245.267,445.954 242.646,448.074 239.507,449.274 C236.376,450.504 232.989,450.676 230.067,450.231 L232.326,450.085 C231.909,450.186 231.694,450.227 231.395,450.289 L230.575,450.443 C230.036,450.54 229.504,450.625 228.974,450.702 C227.914,450.856 226.86,450.979 225.805,451.074 C223.695,451.263 221.581,451.345 219.456,451.311 C215.211,451.246 210.913,450.697 206.703,449.479 C202.502,448.267 198.382,446.343 194.791,443.624 C191.191,440.919 188.198,437.435 186.024,433.63 L189.065,435.693 C188.563,435.594 188.495,435.554 188.321,435.503 L187.925,435.359 C187.688,435.264 187.484,435.169 187.294,435.074 C186.917,434.882 186.594,434.687 186.296,434.489 C185.703,434.091 185.211,433.681 184.765,433.265 C183.878,432.434 183.179,431.583 182.56,430.731 C181.333,429.022 180.431,427.298 179.653,425.576 C178.119,422.128 177.101,418.679 176.267,415.234 C174.637,408.342 173.786,401.468 173.203,394.612 C172.638,387.756 172.4,380.917 172.343,374.092 C172.249,367.27 172.344,360.46 172.565,353.663 C173.052,340.068 173.852,326.516 174.909,312.989 C175.804,299.511 176.308,285.934 176.921,272.407 L176.921,272.418" fill="#1A1919"/>
    <path d="M405.338,510.315 C413.879,497.688 421.43,483.858 429.625,470.926 C437.816,457.979 445.834,444.918 453.57,431.696 C461.297,418.468 468.775,405.091 475.617,391.392 C479.025,384.539 482.277,377.604 485.154,370.512 C486.588,366.965 487.93,363.378 489.08,359.728 C490.219,356.078 491.205,352.362 491.676,348.546 C491.482,352.388 490.762,356.197 489.879,359.948 C488.986,363.702 487.898,367.407 486.715,371.079 C484.334,378.42 481.566,385.628 478.639,392.763 C472.756,407.026 466.213,421 459.416,434.838 C452.605,448.67 445.506,462.356 438.221,475.942 C430.92,489.534 423.482,502.999 415.746,516.422 L405.338,510.315" fill="#1A1919"/>
    <path d="M328.157,488.513 C335.455,455.129 342.55,421.66 349.334,388.148 C352.716,371.389 356.021,354.614 359.111,337.802 C360.652,329.395 362.142,320.979 363.491,312.542 C364.164,308.323 364.801,304.098 365.352,299.863 C365.868,295.627 366.436,291.381 366.402,287.103 C366.713,291.377 366.42,295.671 366.178,299.942 C365.9,304.218 365.536,308.486 365.137,312.75 C364.334,321.278 363.389,329.79 362.393,338.295 C360.391,355.304 358.173,372.284 355.877,389.251 C351.264,423.188 347.144,456.434 342.004,490.315 L328.157,488.513" fill="#1A1919"/>
    <path d="M241.004,427.981 C247.184,404.868 253.167,380.094 258.9,356.841 C261.759,345.21 264.549,333.563 267.157,321.877 C268.457,316.034 269.715,310.181 270.856,304.307 C271.426,301.369 271.967,298.426 272.441,295.473 C272.902,292.519 273.35,289.557 273.48,286.562 C273.626,289.56 273.453,292.569 273.266,295.566 C273.064,298.564 272.795,301.558 272.498,304.547 C271.899,310.526 271.185,316.491 270.426,322.449 C268.9,334.364 267.189,346.251 265.41,358.127 C261.832,381.881 257.382,405.945 253.337,429.648 L241.004,427.981" fill="#1A1919"/>
    <path d="M382.202,213.072 C383.372,214.229 384.784,215.46 386.152,216.605 C387.54,217.762 388.967,218.888 390.423,219.98 C393.336,222.164 396.368,224.217 399.502,226.125 C405.769,229.94 412.444,233.188 419.48,235.632 C412.154,234.282 404.938,232.055 397.966,229.149 C394.479,227.695 391.052,226.069 387.695,224.275 C386.018,223.377 384.358,222.436 382.718,221.446 C381.062,220.438 379.49,219.454 377.806,218.238 C376.282,217.138 375.939,215.011 377.039,213.487 C378.14,211.964 380.266,211.621 381.789,212.721 C381.929,212.821 382.058,212.93 382.177,213.046 L382.202,213.072" fill="#1A1919"/>
    <path d="M274.692,197.105 C277.176,198.767 279.816,200.403 282.444,201.966 C285.083,203.533 287.761,205.043 290.481,206.477 C293.203,207.909 295.966,209.266 298.791,210.498 C301.617,211.725 304.501,212.837 307.494,213.677 C304.397,213.393 301.311,212.815 298.259,212.108 C295.206,211.396 292.182,210.545 289.184,209.61 C286.185,208.673 283.212,207.651 280.26,206.562 C277.299,205.463 274.399,204.333 271.435,203.055 C269.707,202.31 268.911,200.306 269.655,198.578 C270.4,196.851 272.405,196.054 274.133,196.799 C274.32,196.88 274.497,196.976 274.663,197.084 L274.692,197.105" fill="#1A1919"/>
    <path d="M534.137,283.903 C530.9,282.564 527.714,280.965 524.72,279.187 C521.712,277.408 518.85,275.437 516.131,273.316 C513.412,271.196 510.836,268.924 508.409,266.524 C505.99,264.119 503.687,261.605 501.646,258.905 C504.104,261.224 506.765,263.292 509.498,265.224 C512.237,267.148 515.075,268.907 517.99,270.48 C520.906,272.053 523.899,273.443 526.949,274.614 C530.009,275.792 533.08,276.734 536.258,277.46 C538.092,277.879 539.238,279.706 538.819,281.54 C538.4,283.374 536.573,284.521 534.74,284.101 C534.558,284.06 534.382,284.004 534.215,283.936 L534.137,283.903" fill="#1A1919"/>
    <path d="M531.645,283.724 C531.645,283.724 507.678,275.387 500.383,266.008 C500.383,266.008 508.719,280.598 496.215,339.998 C496.215,339.998 507.678,282.682 531.645,283.724" fill="#F3B88A"/>
    <path d="M367.67,216.314 C367.67,216.314 376.506,226.428 389.67,228.981 C389.67,228.981 376.396,230.717 366.907,280.433 C366.907,280.433 375.67,224.648 367.67,216.314" fill="#F3B88A"/>
    <path d="M273.004,205.314 C273.004,205.314 287.67,214.648 300.004,213.981 C300.004,213.981 282.338,215.981 274.004,282.314 C274.004,282.314 281.67,217.981 273.004,205.314" fill="#F3B88A"/>
    <path d="M230.193,438.43 C230.193,438.43 239.138,442.063 242.212,423.616 C242.212,423.616 267.916,321.119 270.856,304.307 C270.856,304.307 242.492,436.193 212.305,440.106 C212.305,440.106 227.398,440.946 230.193,438.43" fill="#F3B88A"/>
    <path d="M328.859,485.108 C328.859,485.108 343.953,415.791 356.531,349.826 C369.109,283.861 333.891,492.375 293.082,493.772 C293.082,493.772 313.767,496.008 328.859,485.108" fill="#F3B88A"/>
    <path d="M479.67,390.814 C479.67,390.814 425.102,514.352 456.17,516.815 C456.17,516.815 434.67,516.815 420.17,507.815 C420.17,507.815 472.17,411.314 479.67,390.814" fill="#F3B88A"/>
    <path d="M557.207,439.186 C557.207,439.186 576.473,426.322 579.549,423.247 C579.549,423.247 576.227,422.801 576.814,421.242 C585.623,397.921 585.316,382.084 585.014,383.159 C581.256,396.487 576.633,406.847 573.9,410.309 C572.717,411.808 570.785,412.046 573.17,408.123 C573.17,408.123 585.289,377.264 584.404,354.915 C582.631,397.786 550.031,443.969 550.031,443.969 L557.207,439.186" fill="#F3B88A"/>
    <path d="M548.65,446.658 C553.176,439.807 557.347,432.605 561.244,425.31 C565.133,417.999 568.727,410.522 571.928,402.877 C575.125,395.232 577.936,387.414 580.133,379.414 C582.319,371.417 583.91,363.223 584.404,354.915 C584.193,363.236 582.879,371.515 580.954,379.624 C579.02,387.738 576.46,395.7 573.504,403.505 C570.542,411.311 567.18,418.962 563.51,426.466 C559.82,433.971 555.896,441.322 551.494,448.507 C551.004,449.306 549.96,449.557 549.161,449.068 C548.362,448.579 548.111,447.534 548.601,446.735 C548.609,446.721 548.619,446.707 548.628,446.693 L548.65,446.658" fill="#1A1919"/>
    <path d="M551.81,442.256 C553.799,440.831 555.797,439.054 557.651,437.261 C559.52,435.448 561.3,433.531 562.995,431.537 C566.384,427.545 569.431,423.244 572.126,418.72 C577.522,409.671 581.479,399.733 584.041,389.429 C582.03,399.854 578.596,410.066 573.605,419.549 C571.112,424.289 568.24,428.845 564.978,433.131 C563.345,435.273 561.615,437.347 559.775,439.334 C557.912,441.326 556.04,443.207 553.804,444.999 C553.073,445.585 552.005,445.467 551.419,444.736 C550.832,444.004 550.95,442.937 551.682,442.351 C551.704,442.333 551.727,442.315 551.75,442.298 L551.81,442.256" fill="#1A1919"/>
    <path d="M154.208,341.921 C154.208,341.921 171.141,330.633 173.963,327.247 C173.963,327.247 170.013,376.352 175.657,413.04 C175.657,413.04 163.239,340.793 127.116,352.082 C127.116,352.082 151.951,342.486 154.208,341.921" fill="#F3B88A"/>
    <path d="M159.853,396.671 L175.657,414.169 L147.435,415.862 C147.435,415.862 172.27,428.28 185.816,437.311 C185.816,437.311 204.443,454.807 225.327,451.42 C225.327,451.42 214.038,471.176 160.981,440.697 C160.981,440.697 155.337,445.212 143.484,441.261 C138.969,437.311 137.235,437.864 136.711,434.489 C136.299,431.84 137.84,428.28 142.355,426.022 C146.253,424.074 157.044,423.956 152.515,422.635 C138.969,418.684 129.141,404.039 131.631,401.751 C134.058,399.522 153.657,414.257 157.595,413.04 C160.785,412.054 155.475,396.734 159.853,396.671" fill="#F3B88A"/>
    <path d="M159.27,399.211 C159.978,400.647 160.668,402.086 161.35,403.525 L163.403,407.826 C164.081,409.255 164.779,410.673 165.524,412.042 C165.891,412.726 166.26,413.407 166.656,414.037 C166.853,414.349 167.058,414.654 167.258,414.905 C167.355,415.027 167.459,415.141 167.523,415.193 C167.549,415.216 167.581,415.229 167.517,415.18 C167.48,415.159 167.427,415.113 167.239,415.063 C167.147,415.042 167.012,415.017 166.808,415.044 C166.704,415.06 166.591,415.089 166.463,415.148 C166.401,415.177 166.334,415.215 166.267,415.264 C166.185,415.332 166.156,415.329 165.984,415.542 L168.391,416.679 C168.211,417.391 168.023,417.85 167.792,418.394 C167.562,418.913 167.295,419.405 167.016,419.885 C166.452,420.842 165.809,421.739 165.111,422.582 C163.722,424.276 162.089,425.73 160.341,426.981 C158.594,428.234 156.75,429.332 154.828,430.234 C152.905,431.135 150.929,431.889 148.928,432.532 L149.703,431.987 C149.036,432.865 148.268,434.01 148.042,434.784 C147.983,434.952 148.012,435.076 147.967,434.918 C147.942,434.843 147.853,434.708 147.761,434.642 C147.67,434.573 147.622,434.567 147.63,434.574 C147.706,434.637 148.332,434.621 148.854,434.501 C149.971,434.276 151.192,433.873 152.376,433.413 C153.572,432.96 154.75,432.421 155.946,431.911 L155.727,432.06 C157.554,430.675 159.399,429.391 161.446,428.337 C162.47,427.828 163.521,427.309 164.78,427.211 C165.093,427.202 165.447,427.23 165.766,427.421 C166.093,427.61 166.257,427.974 166.297,428.274 C166.374,428.895 166.209,429.445 166.029,429.973 C166.073,429.421 166.103,428.841 165.928,428.369 C165.748,427.879 165.342,427.807 164.865,427.92 C163.913,428.178 162.996,428.825 162.121,429.439 C161.242,430.074 160.413,430.791 159.58,431.498 C158.754,432.208 157.933,432.957 157.168,433.707 C157.138,433.736 157.104,433.762 157.069,433.784 L156.948,433.856 C155.804,434.543 154.621,435.167 153.406,435.767 C152.18,436.354 150.949,436.936 149.505,437.321 C148.755,437.477 148.04,437.719 146.827,437.461 C146.52,437.378 146.164,437.24 145.819,436.958 C145.473,436.684 145.197,436.261 145.071,435.874 C144.824,435.083 144.938,434.527 145.026,434.06 C145.242,433.145 145.582,432.476 145.932,431.818 C146.291,431.16 146.665,430.593 147.128,429.975 C147.32,429.719 147.577,429.541 147.859,429.445 L147.903,429.43 C149.778,428.791 151.612,428.053 153.371,427.19 C155.13,426.33 156.848,425.399 158.43,424.288 C160.01,423.177 161.482,421.935 162.777,420.55 C163.418,419.853 164.009,419.115 164.523,418.338 C164.78,417.951 165.015,417.551 165.229,417.151 C165.439,416.776 165.657,416.293 165.757,416.023 L168.164,417.161 C167.984,417.383 167.946,417.388 167.854,417.463 C167.777,417.519 167.699,417.564 167.626,417.597 C167.475,417.668 167.338,417.704 167.21,417.723 C166.957,417.757 166.771,417.728 166.631,417.695 C166.346,417.623 166.203,417.53 166.083,417.456 C165.851,417.3 165.736,417.176 165.622,417.059 C165.409,416.826 165.269,416.625 165.134,416.424 C164.873,416.027 164.669,415.649 164.473,415.271 C164.089,414.515 163.756,413.769 163.447,413.015 C162.846,411.502 162.316,409.987 161.808,408.466 C161.322,406.938 160.86,405.407 160.434,403.866 C160.008,402.325 159.622,400.772 159.27,399.211" fill="#1A1919"/>
    <path d="M167.944,422.489 C164.607,421.8 161.483,420.888 158.346,419.825 C155.228,418.757 152.171,417.517 149.217,416.071 C146.265,414.624 143.414,412.964 140.769,411.027 C138.129,409.091 135.692,406.867 133.693,404.31 C135.938,406.653 138.545,408.588 141.305,410.215 C144.069,411.843 146.992,413.171 149.986,414.285 C152.982,415.395 156.051,416.295 159.154,417.021 C162.242,417.738 165.432,418.321 168.493,418.637 L168.539,418.642 C169.609,418.752 170.388,419.71 170.277,420.781 C170.166,421.851 169.208,422.629 168.138,422.519 C168.073,422.512 168.007,422.501 167.944,422.489" fill="#1A1919"/>
  </g>
</svg>
